<svg
    fill="none"
    height="27"
    viewBox="0 0 58 27"
    width="58"
    xmlns="http://www.w3.org/2000/svg"
>
    <path
    d="M22.4909 26.9723C21.2527 26.9723 20.1667 26.7212 19.238 26.2191C18.3067 25.717 17.5845 25.0103 17.0713 24.0989C16.5581 23.1875 16.3002 22.1096 16.3002 20.8626C16.3002 19.6155 16.5554 18.5377 17.0713 17.6263C17.5845 16.7149 18.3067 16.0081 19.238 15.506C20.1667 15.0039 21.2527 14.7529 22.4909 14.7529C23.729 14.7529 24.8124 15.0039 25.7356 15.506C26.6561 16.0081 27.3756 16.7149 27.8915 17.6263C28.4047 18.5377 28.6626 19.6155 28.6626 20.8626C28.6626 22.1096 28.4047 23.1875 27.8915 24.0989C27.3783 25.0103 26.6588 25.717 25.7356 26.2191C24.8124 26.7212 23.7318 26.9723 22.4909 26.9723ZM22.4692 26.6776C22.9986 26.6776 23.4521 26.4129 23.8295 25.8808C24.2069 25.3487 24.5002 24.6392 24.7147 23.7496C24.9292 22.86 25.0324 21.8913 25.0324 20.8435C25.0324 19.7029 24.921 18.6987 24.7038 17.8227C24.4839 16.9495 24.1825 16.2646 23.7969 15.7707C23.4114 15.2768 22.9769 15.0312 22.4909 15.0312C21.9777 15.0312 21.527 15.2959 21.1414 15.828C20.7559 16.3601 20.4572 17.0669 20.2454 17.9483C20.0336 18.8297 19.9277 19.7956 19.9277 20.8435C19.9277 21.9977 20.0418 23.0183 20.2698 23.897C20.4952 24.7784 20.802 25.4633 21.1876 25.949C21.5732 26.4347 21.9994 26.6776 22.4692 26.6776ZM33.3084 26.9723C32.5237 26.9723 31.8775 26.7212 31.3806 26.2191C30.881 25.717 30.6312 25.0649 30.6312 24.2599V15.4842H28.7033V15.1868C29.746 15.1104 30.68 14.7774 31.5028 14.1853C32.3282 13.5932 33.0043 12.7936 33.5337 11.7922H33.8976V15.0749H36.2707L36.0453 15.4842H33.8976V23.7578C33.8976 24.9748 34.3049 25.5806 35.1222 25.5806C35.3937 25.5806 35.7086 25.4987 36.0643 25.3296C36.4173 25.1631 36.754 24.9421 37.0717 24.6692V24.8984C36.5721 25.537 35.9829 26.0418 35.3014 26.4129C34.6226 26.7867 33.9546 26.9723 33.3057 26.9723H33.3084ZM37.0282 26.653V26.4238H37.0527C37.5957 26.4238 38.0356 26.2573 38.3696 25.9217C38.7008 25.5861 38.8692 25.1467 38.8692 24.5983V17.1215C38.8692 16.543 38.7497 16.0954 38.5162 15.7762C38.2827 15.4569 37.7858 15.2986 37.031 15.2986V15.0694H39.2765C40.0775 15.0694 40.6829 14.9903 41.0902 14.8293C41.4975 14.671 41.7853 14.4609 41.9537 14.2017H42.0677L42.0922 17.9401C42.2877 17.4844 42.5402 17.0068 42.8524 16.5047C43.162 16.0027 43.5557 15.5824 44.0308 15.2386C44.5087 14.8975 45.0789 14.7256 45.7441 14.7256C45.9695 14.7256 46.2112 14.7502 46.4691 14.7938C46.7271 14.8375 46.9986 14.9221 47.2864 15.0449L46.4012 17.7109C45.8582 17.408 45.383 17.1951 44.9839 17.0723C44.582 16.9523 44.2318 16.8895 43.9304 16.8895C43.4172 16.8895 43.0343 17.0478 42.7845 17.367C42.5347 17.6863 42.3202 18.0656 42.1383 18.5049V24.5901C42.1383 25.1385 42.3039 25.5779 42.6379 25.9135C42.9692 26.2492 43.409 26.4156 43.9548 26.4156H43.9765V26.6448H37.0364L37.0282 26.653ZM52.0896 26.9259C51.0443 26.9259 50.1184 26.6667 49.3092 26.1509C48.5001 25.6352 47.8702 24.9175 47.4167 23.9979C46.9633 23.0783 46.7352 22.025 46.7352 20.8407C46.7352 19.6565 46.985 18.5622 47.4846 17.6508C47.9842 16.7394 48.6684 16.0272 49.5373 15.5197C50.4062 15.0121 51.3918 14.7556 52.4969 14.7556C53.4201 14.7556 54.2401 14.9384 54.9596 15.3014C55.6765 15.6643 56.2521 16.18 56.6838 16.8404C57.1128 17.5007 57.3599 18.2648 57.4196 19.1298L57.4441 19.4709H49.8224V19.5855C49.8224 21.1955 50.1754 22.4835 50.8868 23.4494C51.5982 24.4154 52.5512 24.8984 53.7459 24.8984C54.4709 24.8984 55.1633 24.7211 55.8204 24.3636C56.4775 24.0061 57.0124 23.5231 57.4196 22.9146L57.6233 22.9828C57.3653 23.7578 56.9662 24.4427 56.4204 25.0349C55.8774 25.627 55.2339 26.0909 54.4926 26.4265C53.7514 26.7594 52.9504 26.9286 52.0896 26.9286V26.9259ZM49.8441 19.1325H54.4492C54.4492 17.9319 54.2564 16.9605 53.8708 16.2155C53.4853 15.4706 52.9422 15.0994 52.2471 15.0994C51.552 15.0994 51.0307 15.4651 50.5908 16.1937C50.1537 16.9223 49.9039 17.9019 49.8414 19.1325H49.8441ZM22.6104 0.372314H22.347L11.9286 22.4152L7.23129 12.1578C6.87831 11.4129 6.83487 10.8317 7.09825 10.4142C7.36434 9.99665 7.89924 9.78654 8.70838 9.78654H8.81427V9.55732H0.367188V9.78654H0.445929C1.39626 9.78654 2.24884 10.6161 3.00639 12.2724L9.86778 26.9968H10.1312L20.5495 4.9539L22.6592 9.56005H26.8896L22.6077 0.372314H22.6104Z"
    fill="#E5BA59"
    />
</svg>